<mxfile host="app.diagrams.net" modified="2024-07-24T18:10:16.495Z" agent="Mozilla/5.0 (X11; Linux x86_64; rv:128.0) Gecko/20100101 Firefox/128.0" etag="PcG3Qy8WZB7JuEDmkXyM" version="24.7.1" type="device">
  <diagram name="Page-1" id="QaO6IJcZm1U5WDotASN0">
    <mxGraphModel dx="2274" dy="1295" grid="1" gridSize="10" guides="1" tooltips="1" connect="1" arrows="1" fold="1" page="1" pageScale="1" pageWidth="850" pageHeight="1100" math="0" shadow="0">
      <root>
        <mxCell id="0" />
        <mxCell id="1" parent="0" />
        <mxCell id="2PVZD35NaClQ3n3bUbz6-45" style="edgeStyle=orthogonalEdgeStyle;rounded=0;orthogonalLoop=1;jettySize=auto;html=1;entryX=0;entryY=0.25;entryDx=0;entryDy=0;" edge="1" parent="1" source="2PVZD35NaClQ3n3bUbz6-1" target="2PVZD35NaClQ3n3bUbz6-4">
          <mxGeometry relative="1" as="geometry" />
        </mxCell>
        <mxCell id="2PVZD35NaClQ3n3bUbz6-46" style="edgeStyle=orthogonalEdgeStyle;rounded=0;orthogonalLoop=1;jettySize=auto;html=1;entryX=0;entryY=0.25;entryDx=0;entryDy=0;" edge="1" parent="1" source="2PVZD35NaClQ3n3bUbz6-1" target="2PVZD35NaClQ3n3bUbz6-5">
          <mxGeometry relative="1" as="geometry" />
        </mxCell>
        <mxCell id="2PVZD35NaClQ3n3bUbz6-49" style="edgeStyle=orthogonalEdgeStyle;rounded=0;orthogonalLoop=1;jettySize=auto;html=1;entryX=0;entryY=0.5;entryDx=0;entryDy=0;" edge="1" parent="1" source="2PVZD35NaClQ3n3bUbz6-1" target="2PVZD35NaClQ3n3bUbz6-51">
          <mxGeometry relative="1" as="geometry">
            <mxPoint x="250" y="1020" as="targetPoint" />
            <Array as="points">
              <mxPoint x="177" y="320" />
              <mxPoint x="177" y="1020" />
            </Array>
          </mxGeometry>
        </mxCell>
        <mxCell id="2PVZD35NaClQ3n3bUbz6-1" value="Użytkownik niezarejestrowany" style="shape=umlActor;verticalLabelPosition=bottom;verticalAlign=top;html=1;outlineConnect=0;" vertex="1" parent="1">
          <mxGeometry x="-130" y="220" width="30" height="60" as="geometry" />
        </mxCell>
        <mxCell id="2PVZD35NaClQ3n3bUbz6-2" value="" style="rounded=1;whiteSpace=wrap;html=1;fillColor=none;" vertex="1" parent="1">
          <mxGeometry x="270" y="90" width="205" height="1100" as="geometry" />
        </mxCell>
        <mxCell id="2PVZD35NaClQ3n3bUbz6-3" value="&amp;lt;&amp;lt;serwis&amp;gt;&amp;gt;&lt;br&gt;Autentykacja, Autoryzacja." style="shape=umlActor;verticalLabelPosition=bottom;verticalAlign=top;html=1;outlineConnect=0;" vertex="1" parent="1">
          <mxGeometry x="600" y="170" width="30" height="60" as="geometry" />
        </mxCell>
        <mxCell id="2PVZD35NaClQ3n3bUbz6-4" value="Przeglądanie strony " style="rounded=1;whiteSpace=wrap;html=1;" vertex="1" parent="1">
          <mxGeometry x="312.5" y="200" width="120" height="60" as="geometry" />
        </mxCell>
        <mxCell id="2PVZD35NaClQ3n3bUbz6-5" value="Przeglądanie książek" style="rounded=1;whiteSpace=wrap;html=1;" vertex="1" parent="1">
          <mxGeometry x="312.5" y="280" width="120" height="60" as="geometry" />
        </mxCell>
        <mxCell id="2PVZD35NaClQ3n3bUbz6-6" value="&lt;div&gt;cyfrowydochód.pl&lt;/div&gt;" style="text;html=1;align=center;verticalAlign=middle;whiteSpace=wrap;rounded=0;" vertex="1" parent="1">
          <mxGeometry x="343" y="100" width="60" height="30" as="geometry" />
        </mxCell>
        <mxCell id="2PVZD35NaClQ3n3bUbz6-7" value="Zakup książek" style="rounded=1;whiteSpace=wrap;html=1;" vertex="1" parent="1">
          <mxGeometry x="313" y="370" width="120" height="60" as="geometry" />
        </mxCell>
        <mxCell id="2PVZD35NaClQ3n3bUbz6-8" value="Pisanie ticketów" style="rounded=1;whiteSpace=wrap;html=1;" vertex="1" parent="1">
          <mxGeometry x="313" y="450" width="120" height="60" as="geometry" />
        </mxCell>
        <mxCell id="2PVZD35NaClQ3n3bUbz6-9" value="Odpisywanie na tickety" style="rounded=1;whiteSpace=wrap;html=1;" vertex="1" parent="1">
          <mxGeometry x="312.5" y="530" width="120" height="60" as="geometry" />
        </mxCell>
        <mxCell id="2PVZD35NaClQ3n3bUbz6-10" value="Tworzenie nowych książek" style="rounded=1;whiteSpace=wrap;html=1;" vertex="1" parent="1">
          <mxGeometry x="313" y="610" width="120" height="60" as="geometry" />
        </mxCell>
        <mxCell id="2PVZD35NaClQ3n3bUbz6-11" value="Przeglądanie dotyczących aktywności użytkowników na stronie" style="rounded=1;whiteSpace=wrap;html=1;" vertex="1" parent="1">
          <mxGeometry x="313" y="690" width="120" height="80" as="geometry" />
        </mxCell>
        <mxCell id="2PVZD35NaClQ3n3bUbz6-12" value="Zmiana własnych danych i preferencji (awatar, preferencje dotyczące emaili,email, username" style="rounded=1;whiteSpace=wrap;html=1;" vertex="1" parent="1">
          <mxGeometry x="312.5" y="790" width="120" height="100" as="geometry" />
        </mxCell>
        <mxCell id="2PVZD35NaClQ3n3bUbz6-13" value="Login" style="rounded=1;whiteSpace=wrap;html=1;" vertex="1" parent="1">
          <mxGeometry x="312.5" y="910" width="120" height="60" as="geometry" />
        </mxCell>
        <mxCell id="2PVZD35NaClQ3n3bUbz6-37" style="edgeStyle=orthogonalEdgeStyle;rounded=0;orthogonalLoop=1;jettySize=auto;html=1;entryX=0;entryY=0.75;entryDx=0;entryDy=0;" edge="1" parent="1" source="2PVZD35NaClQ3n3bUbz6-14" target="2PVZD35NaClQ3n3bUbz6-4">
          <mxGeometry relative="1" as="geometry" />
        </mxCell>
        <mxCell id="2PVZD35NaClQ3n3bUbz6-38" style="edgeStyle=orthogonalEdgeStyle;rounded=0;orthogonalLoop=1;jettySize=auto;html=1;entryX=0;entryY=0.75;entryDx=0;entryDy=0;" edge="1" parent="1" source="2PVZD35NaClQ3n3bUbz6-14" target="2PVZD35NaClQ3n3bUbz6-5">
          <mxGeometry relative="1" as="geometry" />
        </mxCell>
        <mxCell id="2PVZD35NaClQ3n3bUbz6-40" style="edgeStyle=orthogonalEdgeStyle;rounded=0;orthogonalLoop=1;jettySize=auto;html=1;entryX=0;entryY=0.75;entryDx=0;entryDy=0;" edge="1" parent="1" source="2PVZD35NaClQ3n3bUbz6-14" target="2PVZD35NaClQ3n3bUbz6-9">
          <mxGeometry relative="1" as="geometry" />
        </mxCell>
        <mxCell id="2PVZD35NaClQ3n3bUbz6-41" style="edgeStyle=orthogonalEdgeStyle;rounded=0;orthogonalLoop=1;jettySize=auto;html=1;entryX=0;entryY=0.75;entryDx=0;entryDy=0;" edge="1" parent="1" source="2PVZD35NaClQ3n3bUbz6-14" target="2PVZD35NaClQ3n3bUbz6-10">
          <mxGeometry relative="1" as="geometry" />
        </mxCell>
        <mxCell id="2PVZD35NaClQ3n3bUbz6-42" style="edgeStyle=orthogonalEdgeStyle;rounded=0;orthogonalLoop=1;jettySize=auto;html=1;entryX=0;entryY=0.75;entryDx=0;entryDy=0;" edge="1" parent="1" source="2PVZD35NaClQ3n3bUbz6-14" target="2PVZD35NaClQ3n3bUbz6-11">
          <mxGeometry relative="1" as="geometry" />
        </mxCell>
        <mxCell id="2PVZD35NaClQ3n3bUbz6-43" style="edgeStyle=orthogonalEdgeStyle;rounded=0;orthogonalLoop=1;jettySize=auto;html=1;entryX=0;entryY=0.75;entryDx=0;entryDy=0;" edge="1" parent="1" source="2PVZD35NaClQ3n3bUbz6-14" target="2PVZD35NaClQ3n3bUbz6-12">
          <mxGeometry relative="1" as="geometry" />
        </mxCell>
        <mxCell id="2PVZD35NaClQ3n3bUbz6-44" style="edgeStyle=orthogonalEdgeStyle;rounded=0;orthogonalLoop=1;jettySize=auto;html=1;entryX=0;entryY=0.75;entryDx=0;entryDy=0;" edge="1" parent="1" source="2PVZD35NaClQ3n3bUbz6-14" target="2PVZD35NaClQ3n3bUbz6-13">
          <mxGeometry relative="1" as="geometry" />
        </mxCell>
        <mxCell id="2PVZD35NaClQ3n3bUbz6-54" style="edgeStyle=orthogonalEdgeStyle;rounded=0;orthogonalLoop=1;jettySize=auto;html=1;" edge="1" parent="1" source="2PVZD35NaClQ3n3bUbz6-14" target="2PVZD35NaClQ3n3bUbz6-3">
          <mxGeometry relative="1" as="geometry" />
        </mxCell>
        <mxCell id="2PVZD35NaClQ3n3bUbz6-14" value="admin" style="shape=umlActor;verticalLabelPosition=bottom;verticalAlign=top;html=1;outlineConnect=0;fillColor=#e1d5e7;strokeColor=#9673a6;" vertex="1" parent="1">
          <mxGeometry x="70" y="610" width="30" height="60" as="geometry" />
        </mxCell>
        <mxCell id="2PVZD35NaClQ3n3bUbz6-19" style="edgeStyle=orthogonalEdgeStyle;rounded=0;orthogonalLoop=1;jettySize=auto;html=1;entryX=0;entryY=0.5;entryDx=0;entryDy=0;" edge="1" parent="1" source="2PVZD35NaClQ3n3bUbz6-15" target="2PVZD35NaClQ3n3bUbz6-4">
          <mxGeometry relative="1" as="geometry" />
        </mxCell>
        <mxCell id="2PVZD35NaClQ3n3bUbz6-20" style="edgeStyle=orthogonalEdgeStyle;rounded=0;orthogonalLoop=1;jettySize=auto;html=1;entryX=0;entryY=0.5;entryDx=0;entryDy=0;" edge="1" parent="1" source="2PVZD35NaClQ3n3bUbz6-15" target="2PVZD35NaClQ3n3bUbz6-5">
          <mxGeometry relative="1" as="geometry" />
        </mxCell>
        <mxCell id="2PVZD35NaClQ3n3bUbz6-21" style="edgeStyle=orthogonalEdgeStyle;rounded=0;orthogonalLoop=1;jettySize=auto;html=1;entryX=0;entryY=0.5;entryDx=0;entryDy=0;" edge="1" parent="1" source="2PVZD35NaClQ3n3bUbz6-15" target="2PVZD35NaClQ3n3bUbz6-7">
          <mxGeometry relative="1" as="geometry" />
        </mxCell>
        <mxCell id="2PVZD35NaClQ3n3bUbz6-22" style="edgeStyle=orthogonalEdgeStyle;rounded=0;orthogonalLoop=1;jettySize=auto;html=1;entryX=0;entryY=0.5;entryDx=0;entryDy=0;" edge="1" parent="1" source="2PVZD35NaClQ3n3bUbz6-15" target="2PVZD35NaClQ3n3bUbz6-8">
          <mxGeometry relative="1" as="geometry" />
        </mxCell>
        <mxCell id="2PVZD35NaClQ3n3bUbz6-23" style="edgeStyle=orthogonalEdgeStyle;rounded=0;orthogonalLoop=1;jettySize=auto;html=1;entryX=0;entryY=0.5;entryDx=0;entryDy=0;" edge="1" parent="1" source="2PVZD35NaClQ3n3bUbz6-15" target="2PVZD35NaClQ3n3bUbz6-12">
          <mxGeometry relative="1" as="geometry" />
        </mxCell>
        <mxCell id="2PVZD35NaClQ3n3bUbz6-24" style="edgeStyle=orthogonalEdgeStyle;rounded=0;orthogonalLoop=1;jettySize=auto;html=1;entryX=0;entryY=0.5;entryDx=0;entryDy=0;" edge="1" parent="1" source="2PVZD35NaClQ3n3bUbz6-15" target="2PVZD35NaClQ3n3bUbz6-13">
          <mxGeometry relative="1" as="geometry" />
        </mxCell>
        <mxCell id="2PVZD35NaClQ3n3bUbz6-15" value="commonUser" style="shape=umlActor;verticalLabelPosition=bottom;verticalAlign=top;html=1;outlineConnect=0;" vertex="1" parent="1">
          <mxGeometry x="-50" y="800" width="30" height="60" as="geometry" />
        </mxCell>
        <mxCell id="2PVZD35NaClQ3n3bUbz6-28" style="edgeStyle=orthogonalEdgeStyle;rounded=0;orthogonalLoop=1;jettySize=auto;html=1;entryX=0;entryY=0.5;entryDx=0;entryDy=0;" edge="1" parent="1" source="2PVZD35NaClQ3n3bUbz6-26" target="2PVZD35NaClQ3n3bUbz6-27">
          <mxGeometry relative="1" as="geometry" />
        </mxCell>
        <mxCell id="2PVZD35NaClQ3n3bUbz6-26" value="commonUser(po zakupie książki)" style="shape=umlActor;verticalLabelPosition=bottom;verticalAlign=top;html=1;outlineConnect=0;" vertex="1" parent="1">
          <mxGeometry x="-130" y="1070" width="30" height="60" as="geometry" />
        </mxCell>
        <mxCell id="2PVZD35NaClQ3n3bUbz6-27" value="Wystawienie opinii książce" style="rounded=1;whiteSpace=wrap;html=1;" vertex="1" parent="1">
          <mxGeometry x="312.5" y="1070" width="120" height="60" as="geometry" />
        </mxCell>
        <mxCell id="2PVZD35NaClQ3n3bUbz6-51" value="&lt;div&gt;Rejestracja&lt;/div&gt;" style="rounded=1;whiteSpace=wrap;html=1;" vertex="1" parent="1">
          <mxGeometry x="312.5" y="990" width="120" height="60" as="geometry" />
        </mxCell>
        <mxCell id="2PVZD35NaClQ3n3bUbz6-55" style="edgeStyle=orthogonalEdgeStyle;rounded=0;orthogonalLoop=1;jettySize=auto;html=1;entryX=1;entryY=1;entryDx=0;entryDy=0;entryPerimeter=0;" edge="1" parent="1" source="2PVZD35NaClQ3n3bUbz6-15" target="2PVZD35NaClQ3n3bUbz6-3">
          <mxGeometry relative="1" as="geometry" />
        </mxCell>
        <mxCell id="2PVZD35NaClQ3n3bUbz6-56" style="edgeStyle=orthogonalEdgeStyle;rounded=0;orthogonalLoop=1;jettySize=auto;html=1;entryX=1;entryY=1;entryDx=0;entryDy=0;entryPerimeter=0;" edge="1" parent="1" source="2PVZD35NaClQ3n3bUbz6-26" target="2PVZD35NaClQ3n3bUbz6-3">
          <mxGeometry relative="1" as="geometry" />
        </mxCell>
      </root>
    </mxGraphModel>
  </diagram>
</mxfile>
